<?xml version="1.0" encoding="UTF-8" standalone="no" ?>
<!DOCTYPE svg PUBLIC "-//W3C//DTD SVG 1.1//EN" "http://www.w3.org/Graphics/SVG/1.1/DTD/svg11.dtd">
<svg xmlns="http://www.w3.org/2000/svg" xmlns:xlink="http://www.w3.org/1999/xlink" version="1.1" width="1280" height="1024" viewBox="0 0 1280 1024" xml:space="preserve">
<desc>Created with Fabric.js 5.3.0</desc>
<defs>
</defs>
<g transform="matrix(1 0 0 1 640 512)" id="background-logo"  >
<rect style="stroke: none; stroke-width: 0; stroke-dasharray: none; stroke-linecap: butt; stroke-dashoffset: 0; stroke-linejoin: miter; stroke-miterlimit: 4; fill: rgb(255,255,255); fill-opacity: 0; fill-rule: nonzero; opacity: 1;"  paint-order="stroke"  x="-640" y="-512" rx="0" ry="0" width="1280" height="1024" />
</g>
<g transform="matrix(1.2645394433837347 0 0 1.2645394433837347 224.15376963041018 508.7040837533122)" id="logo-logo"  >
<g style=""  paint-order="stroke"   >
		<g transform="matrix(0.13447581263763161 0 0 -0.13447581263763164 0 -16.220252704118934)"  >
<path style="stroke: none; stroke-width: 1; stroke-dasharray: none; stroke-linecap: butt; stroke-dashoffset: 0; stroke-linejoin: miter; stroke-miterlimit: 4; fill: rgb(23,52,1); fill-rule: nonzero; opacity: 1;"  paint-order="stroke"  transform=" translate(-586.6684953077347, -921.2075)" d="M 404.203 895.109 C 406.28099999999995 907.895 418.289 916.75 431.246 916.75 L 1118.06 916.75 C 1138.23 916.75 1156.79 927.742 1166.47 945.43 L 1166.47 945.43 C 1186.6200000000001 982.2149999999999 1160 1027.1499999999999 1118.06 1027.1499999999999 L 367.941 1027.1499999999999 C 353.371 1027.1499999999999 340.313 1036.1499999999999 335.121 1049.7699999999998 L 275.246 1206.9399999999998 C 265.383 1232.84 240.551 1249.9499999999998 212.83999999999997 1249.9499999999998 L 65.0195 1249.9499999999998 C 24.300799999999995 1249.9499999999998 -6.2773400000000095 1216.6499999999999 1.1054699999999968 1176.61 C 6.660159999999997 1146.4799999999998 32.6992 1125.4399999999998 62.375 1125.4399999999998 L 138.64499999999998 1125.4399999999998 C 153.17199999999997 1125.4399999999998 166.195 1116.4999999999998 171.41799999999998 1102.9499999999998 L 359.41 614.961 C 364.63300000000004 601.4060000000001 377.66 592.465 392.184 592.465 L 940.52 592.465 C 960.637 592.465 979.148 603.4340000000001 988.813 621.0740000000001 L 988.813 621.0740000000001 C 1008.91 657.7700000000001 982.359 702.59 940.52 702.59 L 496.777 702.59 C 483.82 702.59 471.813 711.445 469.734 724.23 C 467.082 740.523 479.59 754.605 495.387 754.605 L 1029.33 754.605 C 1049.4499999999998 754.605 1067.96 765.5740000000001 1077.62 783.219 L 1077.62 783.219 C 1097.7199999999998 819.9140000000001 1071.1699999999998 864.734 1029.33 864.734 L 429.855 864.734 C 414.059 864.734 401.555 878.813 404.20300000000003 895.109" stroke-linecap="round" />
</g>
		<g transform="matrix(0.13447581263763161 0 0 -0.13447581263763164 -14.120295885486712 49.26586823634631)"  >
<path style="stroke: none; stroke-width: 1; stroke-dasharray: none; stroke-linecap: butt; stroke-dashoffset: 0; stroke-linejoin: miter; stroke-miterlimit: 4; fill: rgb(23,52,1); fill-rule: nonzero; opacity: 1;"  paint-order="stroke"  transform=" translate(-481.66600000000005, -83.006)" d="M 481.664 166.012 C 435.82 166.012 398.66 128.84 398.66 83 C 398.66 37.1602 435.82000000000005 0 481.66400000000004 0 C 527.508 0 564.672 37.1602 564.672 83 C 564.672 128.84 527.508 166.012 481.66400000000004 166.012" stroke-linecap="round" />
</g>
		<g transform="matrix(0.13447581263763161 0 0 -0.13447581263763164 40.515209651993416 49.26586823634631)"  >
<path style="stroke: none; stroke-width: 1; stroke-dasharray: none; stroke-linecap: butt; stroke-dashoffset: 0; stroke-linejoin: miter; stroke-miterlimit: 4; fill: rgb(23,52,1); fill-rule: nonzero; opacity: 1;"  paint-order="stroke"  transform=" translate(-887.951, -83.006)" d="M 887.949 166.012 C 842.1089999999999 166.012 804.9449999999999 128.84 804.9449999999999 83 C 804.9449999999999 37.1602 842.1089999999999 0 887.949 0 C 933.793 0 970.957 37.1602 970.957 83 C 970.957 128.84 933.793 166.012 887.949 166.012" stroke-linecap="round" />
</g>
</g>
</g>
<g transform="matrix(1.9211538461538467 0 0 1.9211538461538467 768.9012156985871 507.5513208359947)" id="text-logo"  >
<g style=""  paint-order="stroke"   >
		<g transform="matrix(1 0 0 1 0 0)" id="text-logo-path-0"  >
<path style="stroke: none; stroke-width: 0; stroke-dasharray: none; stroke-linecap: butt; stroke-dashoffset: 0; stroke-linejoin: miter; stroke-miterlimit: 4; fill: rgb(23,52,1); fill-rule: nonzero; opacity: 1;"  paint-order="stroke"  transform=" translate(-206.51999999999998, 18.2)" d="M 2.6 0 L 32.24 0 L 32.24 -7.28 L 11.44 -7.28 L 11.44 -14.56 L 27.04 -14.56 L 27.04 -21.84 L 11.44 -21.84 L 11.44 -29.12 L 32.24 -29.12 L 32.24 -36.4 L 2.6 -36.4 Z M 84.81 0 L 93.65 0 L 79.87 -36.4 L 70.51 -36.4 L 56.73 0 L 65.57 0 L 68.12 -6.76 L 82.26 -6.76 Z M 79.51 -14.04 L 70.88 -14.04 L 75.19 -25.43 Z M 130.36 0.52 C 139.05 0.52 143.57 -1.35 145.44 -4.73 C 146.33 -6.45 146.8 -8.63 146.8 -11.34 C 146.8 -18.41 143.52 -21.84 134.32 -21.84 L 130.36 -21.84 C 126.72 -21.84 124.64 -21.84 123.6 -22.88 C 123.14 -23.35 122.88 -24.18 122.88 -25.32 C 122.88 -27.66 123.5 -28.76 125.63 -29.28 C 126.67 -29.54 128.28 -29.64 130.42 -29.64 C 133.48 -29.64 135.04 -29.38 136.08 -27.77 C 136.6 -26.99 136.86 -25.74 136.86 -24.13 L 145.76 -24.13 C 145.76 -33.7 140.56 -36.92 130.42 -36.92 C 121.73 -36.92 117.21 -35.05 115.39 -31.67 C 114.45 -29.95 113.98 -27.77 113.98 -25.06 C 113.98 -17.99 117.26 -14.56 126.46 -14.56 L 130.36 -14.56 C 133.85 -14.56 136.08 -14.35 137.18 -13.31 C 137.64 -12.79 137.9 -12.06 137.9 -11.08 C 137.9 -8.74 137.28 -7.7 135.2 -7.18 C 134.11 -6.92 132.5 -6.76 130.36 -6.76 C 126.62 -6.76 124.75 -7.07 123.71 -8.63 C 123.14 -9.41 122.88 -10.61 122.88 -12.27 L 113.98 -12.27 C 113.98 -5.67 116.53 -2.13 121.32 -0.62 C 123.66 0.16 126.67 0.52 130.36 0.52 Z M 185.33 -14.04 L 185.33 0 L 194.17 0 L 194.17 -14.04 L 208.21 -36.4 L 198.85 -36.4 L 189.75 -21.89 L 180.65 -36.4 L 171.29 -36.4 Z M 232.7 0 L 262.34 0 L 262.34 -7.28 L 241.54 -7.28 L 241.54 -14.56 L 257.14 -14.56 L 257.14 -21.84 L 241.54 -21.84 L 241.54 -29.12 L 262.34 -29.12 L 262.34 -36.4 L 232.7 -36.4 Z M 301.18 -7.28 L 295.67 -7.28 L 295.67 -29.12 L 301.18 -29.12 C 306.38 -29.12 309.45 -27.82 310.96 -24.7 C 311.69 -23.09 312.05 -20.96 312.05 -18.25 C 312.05 -13 310.75 -9.88 307.63 -8.42 C 306.02 -7.64 303.89 -7.28 301.18 -7.28 Z M 286.83 -36.4 L 286.83 0 L 302.74 0 C 311.32 0 316.47 -2.29 319.02 -7.59 C 320.27 -10.24 320.89 -13.78 320.89 -18.25 C 320.89 -26.94 318.66 -32.03 313.4 -34.53 C 310.75 -35.78 307.22 -36.4 302.74 -36.4 Z M 345.38 0 L 354.22 0 L 354.22 -36.4 L 345.38 -36.4 Z M 390.16 0 L 399 0 L 399 -29.12 L 410.44 -29.12 L 410.44 -36.4 L 378.72 -36.4 L 378.72 -29.12 L 390.16 -29.12 Z" stroke-linecap="round" />
</g>
</g>
</g>
<g transform="matrix(1.9211538461538467 0 0 1.9211538461538467 244.61891780021284 508.2359213249856)" id="tagline-e1a41c7a-144e-45b4-8c16-97884d5b839a-logo"  >
<g style=""  paint-order="stroke"   >
		<g transform="matrix(1 0 0 1 0 0)" id="tagline-e1a41c7a-144e-45b4-8c16-97884d5b839a-logo-path-0"  >
<path style="stroke: none; stroke-width: 0; stroke-dasharray: none; stroke-linecap: butt; stroke-dashoffset: 0; stroke-linejoin: miter; stroke-miterlimit: 4; fill: rgb(23,52,2); fill-rule: nonzero; opacity: 1;"  paint-order="stroke"  transform=" translate(-7.02, 18.2)" d="M 2.6 0 L 11.44 0 L 11.44 -36.4 L 2.6 -36.4 Z" stroke-linecap="round" />
</g>
</g>
</g>
</svg>