<?xml version="1.0" encoding="UTF-8" standalone="no" ?>
<!DOCTYPE svg PUBLIC "-//W3C//DTD SVG 1.1//EN" "http://www.w3.org/Graphics/SVG/1.1/DTD/svg11.dtd">
<svg xmlns="http://www.w3.org/2000/svg" xmlns:xlink="http://www.w3.org/1999/xlink" version="1.1" width="1280" height="1024" viewBox="0 0 1280 1024" xml:space="preserve">
<desc>Created with Fabric.js 5.3.0</desc>
<defs>
</defs>
<g transform="matrix(1 0 0 1 640 512)" id="background-logo"  >
<rect style="stroke: none; stroke-width: 0; stroke-dasharray: none; stroke-linecap: butt; stroke-dashoffset: 0; stroke-linejoin: miter; stroke-miterlimit: 4; fill: rgb(158,231,113); fill-rule: nonzero; opacity: 1;"  paint-order="stroke"  x="-640" y="-512" rx="0" ry="0" width="1280" height="1024" />
</g>
<g transform="matrix(4.877504644397363 0 0 4.877504644397364 639.3936929500874 511.1269178481261)" id="logo-logo"  >
<g style=""  paint-order="stroke"   >
		<g transform="matrix(0.13447581263763161 0 0 -0.13447581263763164 0 -16.220252704118934)"  >
<path style="stroke: none; stroke-width: 1; stroke-dasharray: none; stroke-linecap: butt; stroke-dashoffset: 0; stroke-linejoin: miter; stroke-miterlimit: 4; fill: rgb(23,52,1); fill-rule: nonzero; opacity: 1;"  paint-order="stroke"  transform=" translate(-586.6684953077347, -921.2075)" d="M 404.203 895.109 C 406.28099999999995 907.895 418.289 916.75 431.246 916.75 L 1118.06 916.75 C 1138.23 916.75 1156.79 927.742 1166.47 945.43 L 1166.47 945.43 C 1186.6200000000001 982.2149999999999 1160 1027.1499999999999 1118.06 1027.1499999999999 L 367.941 1027.1499999999999 C 353.371 1027.1499999999999 340.313 1036.1499999999999 335.121 1049.7699999999998 L 275.246 1206.9399999999998 C 265.383 1232.84 240.551 1249.9499999999998 212.83999999999997 1249.9499999999998 L 65.0195 1249.9499999999998 C 24.300799999999995 1249.9499999999998 -6.2773400000000095 1216.6499999999999 1.1054699999999968 1176.61 C 6.660159999999997 1146.4799999999998 32.6992 1125.4399999999998 62.375 1125.4399999999998 L 138.64499999999998 1125.4399999999998 C 153.17199999999997 1125.4399999999998 166.195 1116.4999999999998 171.41799999999998 1102.9499999999998 L 359.41 614.961 C 364.63300000000004 601.4060000000001 377.66 592.465 392.184 592.465 L 940.52 592.465 C 960.637 592.465 979.148 603.4340000000001 988.813 621.0740000000001 L 988.813 621.0740000000001 C 1008.91 657.7700000000001 982.359 702.59 940.52 702.59 L 496.777 702.59 C 483.82 702.59 471.813 711.445 469.734 724.23 C 467.082 740.523 479.59 754.605 495.387 754.605 L 1029.33 754.605 C 1049.4499999999998 754.605 1067.96 765.5740000000001 1077.62 783.219 L 1077.62 783.219 C 1097.7199999999998 819.9140000000001 1071.1699999999998 864.734 1029.33 864.734 L 429.855 864.734 C 414.059 864.734 401.555 878.813 404.20300000000003 895.109" stroke-linecap="round" />
</g>
		<g transform="matrix(0.13447581263763161 0 0 -0.13447581263763164 -14.120295885486712 49.26586823634631)"  >
<path style="stroke: none; stroke-width: 1; stroke-dasharray: none; stroke-linecap: butt; stroke-dashoffset: 0; stroke-linejoin: miter; stroke-miterlimit: 4; fill: rgb(23,52,1); fill-rule: nonzero; opacity: 1;"  paint-order="stroke"  transform=" translate(-481.66600000000005, -83.006)" d="M 481.664 166.012 C 435.82 166.012 398.66 128.84 398.66 83 C 398.66 37.1602 435.82000000000005 0 481.66400000000004 0 C 527.508 0 564.672 37.1602 564.672 83 C 564.672 128.84 527.508 166.012 481.66400000000004 166.012" stroke-linecap="round" />
</g>
		<g transform="matrix(0.13447581263763161 0 0 -0.13447581263763164 40.515209651993416 49.26586823634631)"  >
<path style="stroke: none; stroke-width: 1; stroke-dasharray: none; stroke-linecap: butt; stroke-dashoffset: 0; stroke-linejoin: miter; stroke-miterlimit: 4; fill: rgb(23,52,1); fill-rule: nonzero; opacity: 1;"  paint-order="stroke"  transform=" translate(-887.951, -83.006)" d="M 887.949 166.012 C 842.1089999999999 166.012 804.9449999999999 128.84 804.9449999999999 83 C 804.9449999999999 37.1602 842.1089999999999 0 887.949 0 C 933.793 0 970.957 37.1602 970.957 83 C 970.957 128.84 933.793 166.012 887.949 166.012" stroke-linecap="round" />
</g>
</g>
</g>
<g transform="matrix(1.9211538461538467 0 0 1.9211538461538467 718.2194160561093 508.82621100450814)" id="tagline-e1a41c7a-144e-45b4-8c16-97884d5b839a-logo"  >
<g style=""  paint-order="stroke"   >
		<g transform="matrix(1 0 0 1 0 0)" id="tagline-e1a41c7a-144e-45b4-8c16-97884d5b839a-logo-path-0"  >
<path style="stroke: none; stroke-width: 0; stroke-dasharray: none; stroke-linecap: butt; stroke-dashoffset: 0; stroke-linejoin: miter; stroke-miterlimit: 4; fill: rgb(23,52,2); fill-rule: nonzero; opacity: 1;"  paint-order="stroke"  transform=" translate(-27.135, 70.35)" d="M 10.05 0 L 44.22 0 L 44.22 -140.7 L 10.05 -140.7 Z" stroke-linecap="round" />
</g>
</g>
</g>
</svg>